# xmcd
#
# Track frame offsets: 
#        150
#        18995
#        38342
#        57875
#        77335
#        96317
#        114262
#        133880
#        153332
#        175187
#
# Disc length: 2637 seconds
#
# Revision: 3
# Processed by: cddbd v1.5.2PL0 Copyright (c) Steve Scherf et al.
# Submitted via: ExactAudioCopyFreeDBPlugin 1.0
#
DISCID=6d0a4b0a
DTITLE=702 - No Doubt
DYEAR=1996
DGENRE=R&B
TTITLE0=Get Down Like Dat
TTITLE1=Steelo
TTITLE2=No Doubt
TTITLE3=Show You My Love
TTITLE4=Not Gonna
TTITLE5=All I Want
TTITLE6=Round and Round
TTITLE7=Word Iz Bond
TTITLE8=Get It Together
TTITLE9=Finding My Way
EXTD=YEAR: 1996
EXTT0=
EXTT1=
EXTT2=
EXTT3=
EXTT4=
EXTT5=
EXTT6=
EXTT7=
EXTT8=
EXTT9=
PLAYORDER=
